<svg xmlns="http://www.w3.org/2000/svg" viewBox="0 0 161 30">
<!-- SVG created with Arrow, by QuiverAI (https://quiver.ai) -->
  <style type="text/css">.cls-0 {fill:#F90B7C;}</style>
  <path class="cls-0" d="m14.5 26.7-0.1 0.3-10.7-11.1c-1.5-1.6-2.5-3.5-2.5-6.6 0-4.1 3.4-8.9 8.1-8.9 3.1-0.1 5.1 1 6.4 2.6l-0.1 0.1 0.2-0.2-0.2 0.2-0.2 0.1 0.2-0.1 0.2-0.2-0.3-0.3c0.2 0.2 0.3 0.4 0.1 0.7l-1 3.3c-1.2-1.7-2.7-3.1-5.3-3.2-2.9 0.1-5.2 2.3-5.3 5.4 0 2 1 3.7 1.8 4.7 2.2 2.7 6.2 6.4 8.6 8.9l0.6 0.9-0.5 3.4z"/>
  <path class="cls-0" d="m24.7 9.9v3h4.5l-10 10.3-3.4 6.1h1.5l13.5-13.6c1.4-1.5 2.4-3.5 2.6-5.8h-8.7z"/>
  <path class="cls-0" d="m24.4 0.4c-3 0-5.6 1.4-7 3.4l-4.4 13.6h4.4l-3.2 12.2 9-16.3h-4.6l4.1-8.9c0.3-0.7 1-1 2-1 2.1 0.1 4.5 1.2 5.4 4.2h3.2c-0.6-4.2-4.3-7.2-8.9-7.2z"/>
  <path class="cls-0" d="m39.6 18.3v-9.7c0-3.1 2.1-5.2 5.2-5.2h0.5c3.1 0 5.4 2 5.4 4.8v1.1c0 0.2-0.1 0.4-0.3 0.4h-3.5v-1.2c0-1-0.7-1.9-1.7-1.9-0.9 0-1.7 0.8-1.7 1.9v9.7c0 1.1 0.7 1.9 1.6 1.9 0.9 0.1 1.6-0.7 1.6-1.8v-1.2h3.7c0.2 0 0.3 0.2 0.3 0.4v0.9c0 3-2.1 5.1-5.2 5.1h-0.5c-3.3 0-5.4-2-5.4-5.2z"/>
  <path class="cls-0" d="m52.3 18.6v-5.3c0-2.8 1.8-4.9 5.3-4.9 3.3 0 5.4 1.9 5.4 4.7v5.6c0 2.8-1.7 4.9-5.1 4.9-3.5 0-5.6-1.8-5.6-5zm6.8-0.1v-5.1c0-0.8-0.5-1.7-1.4-1.7-0.7 0-1.3 0.7-1.3 1.6v5.1c0 1.1 0.6 1.7 1.3 1.7 0.9 0 1.4-0.6 1.4-1.6z"/>
  <path class="cls-0" d="m64.8 19.3v-10.4c0-0.1 0.2-0.3 0.3-0.3h3.2c0.2 0 0.4 0.2 0.4 0.3v9.5c0 0.9 0.6 1.7 1.3 1.7s1.3-0.7 1.3-1.7v-9.5c0-0.1 0.2-0.3 0.3-0.3h3.1c0.2 0 0.4 0.2 0.4 0.3v14.1c0 0.2-0.1 0.3-0.3 0.3h-3l-0.2-0.8c-0.5 0.6-1.3 1.1-2.7 1.1-2.5 0-4.1-1.5-4.1-4.3z"/>
  <path class="cls-0" d="m87.5 11.1c0.6 1.6 0.1 5.2 0 8.4-0.3 2.3-1.7 4-4 4-0.9 0-2-0.5-2.5-1v5.5c0 0.2-0.1 0.3-0.3 0.3h-3.2c-0.1 0-0.3-0.1-0.3-0.3v-19.1c0-0.1 0.1-0.3 0.3-0.3h3.1l0.2 1c0.5-0.7 1.4-1.2 2.6-1.2 1.9 0 3.5 0.9 4.1 2.7zm-3.9 2.3c0-1-0.6-1.7-1.3-1.8-0.7 0-1.3 0.6-1.4 1.4v5.5c0 0.9 0.6 1.6 1.4 1.6 0.7 0 1.3-0.6 1.3-1.5v-5.2z"/>
  <path class="cls-0" d="m89.4 22.9v-19c0-0.1 0.1-0.3 0.3-0.3h3.3c0.1 0 0.3 0.2 0.3 0.3v19c0 0.2-0.1 0.4-0.3 0.4h-3.3c-0.1 0-0.3-0.1-0.3-0.4z"/>
  <path class="cls-0" d="m95.3 18.8v-5.5c0-3 1.9-4.9 5.2-4.9 3.1 0 5.1 1.9 5.1 4.7v3.7c0 0.2-0.2 0.3-0.4 0.3h-6v1.6c0 0.9 0.5 1.4 1.2 1.4 0.7 0.1 1.4-0.5 1.4-1.5h3.6c0.4 2.9-1.3 5-4.8 5-3.3 0-5.3-1.8-5.3-4.8zm6.5-4.2v-1.3c0-0.9-0.6-1.6-1.3-1.7-0.8 0-1.3 0.7-1.3 1.7v1.3h2.6z"/>
  <path class="cls-0" d="m107.4 18.2v-9.4c0-3.3 2.1-5.4 5.3-5.4h0.5c3.2 0 5.6 2.1 5.6 5.2v1.2c0 0.2-0.1 0.3-0.3 0.3h-3.5v-1.6c0-1-0.7-1.9-1.7-1.9-0.8 0-1.8 0.7-1.8 1.8v9.9c0 1.1 0.8 1.8 1.6 1.8 1 0.1 1.8-0.7 1.8-1.8v-2.5h-1.7v-2.9c0-0.2 0.2-0.4 0.3-0.4h4.9c0.2 0 0.4 0.2 0.4 0.4v5.3c0 3.3-2.2 5.3-5.3 5.3h-0.5c-3.5 0-5.6-2.1-5.6-5.3z"/>
  <path class="cls-0" d="m120.5 18.9v-5.6c0-2.8 1.8-4.9 5.3-4.9 3.2 0 5.3 1.9 5.3 4.7v5.9c0 2.7-1.7 4.6-5.2 4.6-3.3 0-5.4-1.7-5.4-4.7zm6.6-0.3v-5.2c0-0.8-0.5-1.7-1.4-1.7-0.7 0-1.4 0.6-1.4 1.6v5.2c0 1 0.6 1.6 1.4 1.7 0.7 0 1.4-0.7 1.4-1.6z"/>
  <path class="cls-0" d="m143.6 23v-19c0-0.2 0.1-0.3 0.3-0.4h4.5c0.2 0 0.3 0.2 0.4 0.3v19.1c0 0.2-0.2 0.4-0.3 0.4h-4.5c-0.2 0-0.3-0.2-0.4-0.4z"/>
  <path class="cls-0" d="m150.6 18.6h3.2c0 1.1 0.5 1.9 1.5 1.9 0.8 0 1.2-0.5 1.2-1.2s-0.4-1-1.4-1.5l-1.7-0.8c-1.8-0.8-2.8-2-2.8-4.1 0-2.8 1.9-4.5 4.9-4.5 2.9 0 4.8 1.9 4.5 4.6h-3.2c0.1-1.1-0.5-1.6-1.2-1.6-0.8-0.1-1.3 0.5-1.3 1.2s0.4 1.4 1.4 1.7c2.3 0.9 4.3 1.9 4.3 4.3 0.1 3.1-1.8 4.9-4.5 4.9-3.7 0.1-5.2-1.9-4.9-4.9z"/>
  <path class="cls-0" d="m138.6 8.4c-3.4-0.3-5.9 1.4-5.7 4.8h3.8c-0.1-0.8 0.5-1.5 1.4-1.5 0.8 0 1.4 0.9 1.5 1.7v1c-4-0.3-7 0.5-7 4.3v0.6c0 2.6 1.4 4.3 4.1 4.3 1.1 0 2.2-0.4 2.9-1.2l0.1 0.9h3.4c0.3 0 0.5-0.1 0.5-0.3v-10.1c0-2.3-1.7-4.2-5-4.5zm1 10.4c0 1-0.7 1.6-1.6 1.7-0.7 0.1-1.4-0.6-1.4-1.6 0-1.5 1.5-1.8 3-1.7v1.6z"/>
</svg>